<?xml version="1.0" encoding="UTF-8"?>
<svg xmlns="http://www.w3.org/2000/svg" version="1.1" viewBox="0 0 160 160">
  <!-- Generator: Adobe Illustrator 29.5.1, SVG Export Plug-In . SVG Version: 2.1.0 Build 141)  -->
  <defs>
    <style>
      .st0 {
        isolation: isolate;
      }

      .st1 {
        mix-blend-mode: multiply;
      }

      .st2 {
        fill: none;
        stroke: #666;
        stroke-miterlimit: 10;
        stroke-width: .25px;
      }

      .st3 {
        display: none;
      }
    </style>
  </defs>
  <g class="st0">
    <g id="Layer_1">
      <path class="st1" d="M111.67187,86.852506l-7.893821-4.561585v-45.717211l39.570755,22.84844,7.939545-4.561513-.02033-9.153629L95.838503,13.70494l-7.944682,4.581915.02033,54.845373-7.914151-4.566649V4.561513l-7.893821-4.561513L8.711651,36.573711l.045724,73.147494,63.30308,36.573783,7.96494-4.571714-.025394-9.153629-55.404122-32.017262-.050861-54.835244,39.598103-22.858063.018449.010635v36.55244l-.005137.005064-23.772912-13.710077-7.893821,4.561585v45.717211l39.61648,22.843376,7.893821-4.556521v-27.430283l7.919215,4.566649.025394,64.019259,7.893893,4.561585,55.449846-32.017262v-54.835244l-7.939545-4.581915-31.676934,18.286928ZM135.404194,91.434349v27.404961l-31.626145,18.286855v-36.522994l7.068757,4.056736.825064.479455.005137-.002966.043265.024816v-.049776l23.683923-13.677086ZM64.161569,95.995934l-15.833439-9.143428v-18.266598l15.833439,9.133299v18.276727Z"/>
      <g class="st3">
        <path class="st2" d="M106.719163,85.780939l-6.659427-3.848237v-38.568163l33.382872,19.275502,6.698006-3.848237-.017132-7.722212-46.761753-26.997714-6.702296,3.865395.017132,46.268953-6.676559-3.852553V16.358246l-6.659453-3.848237-53.481181,30.85453.03858,61.709061,53.404048,30.85453,6.719428-3.856816-.021422-7.722212-46.740331-27.010557-.042869-46.260374,33.421478-19.292661v30.85453l-.00429.00429-20.05544-11.566159-6.659453,3.848237v38.568163l33.421452,19.271239,6.659453-3.843974v-23.140898l6.680848,3.852553.021422,54.008271,6.659453,3.848237,46.778885-27.010557v-46.260374l-6.698006-3.865395-26.723445,15.427265ZM126.740339,112.765811l-26.680602,15.427265v-30.85453l6.659427,3.869659,20.021176-11.56187v23.119476ZM66.638285,93.494572l-13.357459-7.713633v-15.410107l13.357459,7.705054v15.418686Z"/>
        <line class="st2" x1="66.633988" y1="62.644344" x2="79.999999" y2="70.353692"/>
        <line class="st2" x1="66.638273" y1="78.075895" x2="79.999999" y2="85.780957"/>
        <line class="st2" x1="86.676577" y1="74.206223" x2="86.680862" y2="89.633488"/>
        <line class="st2" x1="100.059729" y1="81.932711" x2="100.059729" y2="97.33855"/>
        <line class="st2" x1="133.42119" y1="85.789528" x2="126.740327" y2="89.646344"/>
        <line class="st2" x1="100.059729" y1="135.92814" x2="100.05973" y2="128.226101"/>
        <line class="st2" x1="66.638273" y1="31.785529" x2="73.301995" y2="27.937283"/>
        <line class="st2" x1="46.578543" y1="66.505446" x2="53.280833" y2="70.370833"/>
        <line class="st2" x1="100.059729" y1="43.364548" x2="93.361725" y2="39.499161"/>
      </g>
    </g>
  </g>
</svg>